# Blender 4.4.3
# www.blender.org
mtllib separated_tire_item.mtl
o belt_tire.003
v 0.914214 0.512500 1.500000
v 0.914214 0.887500 1.500000
v 0.839610 0.512500 1.319892
v 0.839610 0.887500 1.319892
v 1.500000 0.512500 0.914214
v 1.500000 0.887500 0.914213
v 1.319892 0.512500 0.839610
v 1.319892 0.887500 0.839610
v 1.500000 0.512500 0.085786
v 1.500000 0.887500 0.085786
v 1.319892 0.512500 0.160390
v 1.319892 0.887500 0.160389
v 0.914214 0.512500 -0.500000
v 0.914214 0.887500 -0.500000
v 0.839610 0.512500 -0.319892
v 0.839610 0.887500 -0.319892
v 0.085786 0.512500 -0.500000
v 0.085786 0.887500 -0.500000
v 0.160390 0.512500 -0.319892
v 0.160390 0.887500 -0.319892
v -0.500000 0.512500 0.085786
v -0.500000 0.887500 0.085786
v -0.319892 0.512500 0.160390
v -0.319892 0.887500 0.160389
v -0.500000 0.512500 0.914214
v -0.500000 0.887500 0.914213
v -0.319892 0.512500 0.839610
v -0.319892 0.887500 0.839610
v 0.085786 0.512500 1.500000
v 0.085786 0.887500 1.500000
v 0.160390 0.512500 1.319892
v 0.160390 0.887500 1.319892
v 0.914214 0.700000 1.500000
v 1.500000 0.700000 0.914213
v 1.500000 0.700000 0.085786
v 0.914214 0.700000 -0.500000
v 0.085786 0.700000 -0.500000
v -0.500000 0.700000 0.085786
v -0.500000 0.700000 0.914213
v 0.085786 0.700000 1.500000
vn 0.7071 -0.0000 0.7071
vn -0.7071 -0.0000 -0.7071
vn -0.0000 -1.0000 -0.0000
vn -0.0000 1.0000 -0.0000
vn 1.0000 -0.0000 -0.0000
vn -1.0000 -0.0000 -0.0000
vn 0.7071 -0.0000 -0.7071
vn -0.7071 -0.0000 0.7071
vn -0.0000 -0.0000 -1.0000
vn -0.0000 -0.0000 1.0000
vt 0.000000 0.343750
vt 0.437500 0.343750
vt 0.437500 0.437500
vt 0.000000 0.437500
vt 0.183362 0.562500
vt 0.156250 0.562500
vt 0.156250 0.531250
vt 0.183362 0.531250
vt 0.369667 0.000000
vt 0.036583 0.000000
vt 0.000000 0.093750
vt 0.406250 0.093750
vt 0.000000 0.062500
vt 0.437500 0.062500
vt 0.437500 0.156250
vt 0.000000 0.156250
s 1
usemtl tire_0
f 33/1/1 34/2/1 6/3/1 2/4/1
f 4/5/2 8/6/2 7/7/2 3/8/2
f 3/9/3 7/10/3 5/11/3 1/12/3
f 2/12/4 6/11/4 8/10/4 4/9/4
f 34/1/5 35/2/5 10/3/5 6/4/5
f 8/5/6 12/6/6 11/7/6 7/8/6
f 7/9/3 11/10/3 9/11/3 5/12/3
f 6/12/4 10/11/4 12/10/4 8/9/4
f 35/1/7 36/2/7 14/3/7 10/4/7
f 12/5/8 16/6/8 15/7/8 11/8/8
f 11/9/3 15/10/3 13/11/3 9/12/3
f 10/12/4 14/11/4 16/10/4 12/9/4
f 36/1/9 37/2/9 18/3/9 14/4/9
f 16/5/10 20/6/10 19/7/10 15/8/10
f 15/9/3 19/10/3 17/11/3 13/12/3
f 14/12/4 18/11/4 20/10/4 16/9/4
f 37/1/2 38/2/2 22/3/2 18/4/2
f 20/5/1 24/6/1 23/7/1 19/8/1
f 19/9/3 23/10/3 21/11/3 17/12/3
f 18/12/4 22/11/4 24/10/4 20/9/4
f 38/1/6 39/2/6 26/3/6 22/4/6
f 24/5/5 28/6/5 27/7/5 23/8/5
f 23/9/3 27/10/3 25/11/3 21/12/3
f 22/12/4 26/11/4 28/10/4 24/9/4
f 39/1/8 40/2/8 30/3/8 26/4/8
f 28/5/7 32/6/7 31/7/7 27/8/7
f 27/9/3 31/10/3 29/11/3 25/12/3
f 26/12/4 30/11/4 32/10/4 28/9/4
f 40/1/10 33/2/10 2/3/10 30/4/10
f 32/5/9 4/6/9 3/7/9 31/8/9
f 31/9/3 3/10/3 1/11/3 29/12/3
f 30/12/4 2/11/4 4/10/4 32/9/4
f 29/13/10 1/14/10 33/15/10 40/16/10
f 25/13/8 29/14/8 40/15/8 39/16/8
f 21/13/6 25/14/6 39/15/6 38/16/6
f 17/13/2 21/14/2 38/15/2 37/16/2
f 13/13/9 17/14/9 37/15/9 36/16/9
f 9/13/7 13/14/7 36/15/7 35/16/7
f 5/13/5 9/14/5 35/15/5 34/16/5
f 1/13/1 5/14/1 34/15/1 33/16/1
o core.003
v 0.062500 0.887500 0.312500
v 0.062500 0.887500 0.687500
v -0.062500 0.887500 0.312500
v -0.062500 0.887500 0.687500
v 0.062500 0.512500 0.312500
v 0.062500 0.512500 0.687500
v -0.062500 0.512500 0.312500
v -0.062500 0.512500 0.687500
v 0.062500 0.887500 0.687500
v 0.062500 0.887500 0.312500
v 0.062500 0.512500 0.312500
v 0.062500 0.512500 0.687500
v 0.312500 0.887500 0.062500
v 0.312500 0.512500 0.062500
v 0.135417 0.512500 0.651016
v 0.135417 0.512500 0.348985
v 0.687500 0.887500 0.062500
v 0.687500 0.512500 0.062500
v 0.348985 0.512500 0.135417
v 0.937500 0.887500 0.312500
v 0.937500 0.512500 0.312500
v 0.651016 0.512500 0.135417
v 0.937500 0.887500 0.687500
v 0.937500 0.512500 0.687500
v 0.864583 0.512500 0.348985
v 0.687500 0.887500 0.937500
v 0.687500 0.512500 0.937500
v 0.864583 0.512500 0.651016
v 0.312500 0.887500 0.937500
v 0.312500 0.512500 0.937500
v 0.651015 0.512500 0.864583
v 0.348984 0.512500 0.864583
v 0.500000 0.512500 0.500000
v 0.500000 0.887500 0.500000
v 0.135417 0.887500 0.348984
v 0.135417 0.887500 0.651015
v 0.348985 0.887500 0.864583
v 0.651016 0.887500 0.864583
v 0.864583 0.887500 0.651015
v 0.864583 0.887500 0.348984
v 0.651016 0.887500 0.135417
v 0.348985 0.887500 0.135417
v 0.687500 0.887500 0.062500
v 0.312500 0.887500 0.062500
v 0.687500 0.887500 -0.062500
v 0.312500 0.887500 -0.062500
v 0.687500 0.512500 0.062500
v 0.312500 0.512500 0.062500
v 0.687500 0.512500 -0.062500
v 0.312500 0.512500 -0.062500
v 0.937500 0.887500 0.687500
v 0.937500 0.887500 0.312500
v 1.062500 0.887500 0.687500
v 1.062500 0.887500 0.312500
v 0.937500 0.512500 0.687500
v 0.937500 0.512500 0.312500
v 1.062500 0.512500 0.687500
v 1.062500 0.512500 0.312500
v 0.312500 0.887500 0.937500
v 0.687500 0.887500 0.937500
v 0.312500 0.887500 1.062500
v 0.687500 0.887500 1.062500
v 0.312500 0.512500 0.937500
v 0.687500 0.512500 0.937500
v 0.312500 0.512500 1.062500
v 0.687500 0.512500 1.062500
vn -0.0000 1.0000 -0.0000
vn -0.0000 -1.0000 -0.0000
vn 1.0000 -0.0000 -0.0000
vn -1.0000 -0.0000 -0.0000
vn -0.0000 -0.0000 -1.0000
vn -0.0000 -0.0000 1.0000
vn -0.7071 -0.0000 -0.7071
vn 0.7071 -0.0000 -0.7071
vn 0.7071 -0.0000 0.7071
vn -0.7071 -0.0000 0.7071
vt 0.812500 0.468750
vt 0.812500 0.406250
vt 1.000000 0.406250
vt 1.000000 0.468750
vt 0.562500 0.000000
vt 0.625000 0.000000
vt 0.625000 0.375000
vt 0.562500 0.375000
vt 0.981759 0.375000
vt 0.830744 0.375000
vt 0.981759 0.437500
vt 0.830744 0.437500
vt 0.812500 0.187500
vt 1.000000 0.262500
vt 0.887500 0.375000
vt 1.000000 0.112500
vt 0.887500 0.000000
vt 0.737500 0.000000
vt 0.737500 0.375000
vt 0.625000 0.262500
vt 0.625000 0.112500
s 1
usemtl tire_0
f 44/17/11 42/18/11 41/19/11 43/20/11
f 47/17/12 45/18/12 46/19/12 48/20/12
f 41/21/13 42/22/13 46/23/13 45/24/13
f 44/21/14 43/22/14 47/23/14 48/24/14
f 43/21/15 41/22/15 45/23/15 47/24/15
f 48/21/16 46/22/16 42/23/16 44/24/16
f 49/21/14 50/22/14 51/23/14 52/24/14
f 50/21/17 53/22/17 54/23/17 51/24/17
f 55/25/12 52/19/12 51/18/12 56/26/12
f 53/21/15 57/22/15 58/23/15 54/24/15
f 56/27/12 51/20/12 54/17/12 59/28/12
f 57/21/18 60/22/18 61/23/18 58/24/18
f 59/25/12 54/19/12 58/18/12 62/26/12
f 60/21/13 63/22/13 64/23/13 61/24/13
f 62/27/12 58/20/12 61/17/12 65/28/12
f 63/21/19 66/22/19 67/23/19 64/24/19
f 65/25/12 61/19/12 64/18/12 68/26/12
f 66/21/16 69/22/16 70/23/16 67/24/16
f 68/27/12 64/20/12 67/17/12 71/28/12
f 69/21/20 49/22/20 52/23/20 70/24/20
f 71/25/12 67/19/12 70/18/12 72/26/12
f 72/27/12 70/20/12 52/17/12 55/28/12
f 73/29/12 72/30/12 55/31/12
f 73/29/12 71/32/12 72/30/12
f 73/29/12 68/33/12 71/32/12
f 73/29/12 65/34/12 68/33/12
f 74/29/11 75/31/11 76/35/11
f 74/29/11 76/35/11 77/36/11
f 74/29/11 77/36/11 78/37/11
f 73/29/12 62/37/12 65/34/12
f 74/29/11 79/34/11 80/33/11
f 74/29/11 78/37/11 79/34/11
f 74/29/11 80/33/11 81/32/11
f 74/29/11 81/32/11 82/30/11
f 73/29/12 59/36/12 62/37/12
f 82/27/11 53/20/11 50/17/11 75/28/11
f 74/29/11 82/30/11 75/31/11
f 81/25/11 57/19/11 53/18/11 82/26/11
f 80/27/11 60/20/11 57/17/11 81/28/11
f 73/29/12 56/35/12 59/36/12
f 78/27/11 66/20/11 63/17/11 79/28/11
f 79/25/11 63/19/11 60/18/11 80/26/11
f 77/25/11 69/19/11 66/18/11 78/26/11
f 76/27/11 49/20/11 69/17/11 77/28/11
f 73/29/12 55/31/12 56/35/12
f 75/25/11 50/19/11 49/18/11 76/26/11
f 86/17/11 84/18/11 83/19/11 85/20/11
f 89/17/12 87/18/12 88/19/12 90/20/12
f 83/21/16 84/22/16 88/23/16 87/24/16
f 86/21/15 85/22/15 89/23/15 90/24/15
f 85/21/13 83/22/13 87/23/13 89/24/13
f 90/21/14 88/22/14 84/23/14 86/24/14
f 94/17/11 92/18/11 91/19/11 93/20/11
f 97/17/12 95/18/12 96/19/12 98/20/12
f 91/21/14 92/22/14 96/23/14 95/24/14
f 94/21/13 93/22/13 97/23/13 98/24/13
f 93/21/16 91/22/16 95/23/16 97/24/16
f 98/21/15 96/22/15 92/23/15 94/24/15
f 102/17/11 100/18/11 99/19/11 101/20/11
f 105/17/12 103/18/12 104/19/12 106/20/12
f 99/21/15 100/22/15 104/23/15 103/24/15
f 102/21/16 101/22/16 105/23/16 106/24/16
f 101/21/14 99/22/14 103/23/14 105/24/14
f 106/21/13 104/22/13 100/23/13 102/24/13
o rim.003
v 0.156250 0.887500 1.312497
v 0.156250 0.512500 1.312500
v 0.218750 0.887500 1.187500
v 0.218750 0.512500 1.187500
v -0.312500 0.887500 0.843750
v -0.312500 0.512500 0.843750
v -0.187500 0.887500 0.781250
v -0.187500 0.512500 0.781250
v -0.312500 0.887500 0.156250
v -0.312500 0.512500 0.156250
v -0.187500 0.887500 0.218750
v -0.187500 0.512500 0.218750
v 0.156250 0.887500 -0.312497
v 0.156250 0.512500 -0.312500
v 0.218750 0.887500 -0.187500
v 0.218750 0.512500 -0.187500
v 0.843750 0.887500 -0.312497
v 0.843750 0.512500 -0.312500
v 0.781250 0.887500 -0.187500
v 0.781250 0.512500 -0.187500
v 1.312500 0.887500 0.156250
v 1.312500 0.512500 0.156250
v 1.187500 0.887500 0.218750
v 1.187500 0.512500 0.218750
v 1.312500 0.887500 0.843750
v 1.312500 0.512500 0.843750
v 1.187500 0.887500 0.781250
v 1.187500 0.512500 0.781250
v 0.843750 0.887500 1.312497
v 0.843750 0.512500 1.312500
v 0.781250 0.887500 1.187500
v 0.781250 0.512500 1.187500
vn -0.7071 -0.0000 0.7071
vn 0.7071 -0.0000 -0.7071
vn -0.0000 1.0000 -0.0000
vn -0.0000 -1.0000 -0.0000
vn -1.0000 -0.0000 -0.0000
vn 1.0000 -0.0000 -0.0000
vn -0.7071 -0.0000 -0.7071
vn 0.7071 -0.0000 0.7071
vn -0.0000 -0.0000 -1.0000
vn -0.0000 -0.0000 1.0000
vt 0.625000 0.000000
vt 0.562500 0.000000
vt 0.562500 0.375000
vt 0.625000 0.375000
vt 0.666127 0.937500
vt 0.958873 0.937500
vt 0.984375 1.000000
vt 0.640625 1.000000
vt 0.666128 0.937500
vt 0.958872 0.937500
s 1
usemtl tire_0
f 107/38/21 111/39/21 112/40/21 108/41/21
f 110/41/22 114/40/22 113/39/22 109/38/22
f 109/42/23 113/43/23 111/44/23 107/45/23
f 108/44/24 112/45/24 114/46/24 110/47/24
f 111/38/25 115/39/25 116/40/25 112/41/25
f 114/41/26 118/40/26 117/39/26 113/38/26
f 113/42/23 117/43/23 115/44/23 111/45/23
f 112/44/24 116/45/24 118/46/24 114/47/24
f 115/38/27 119/39/27 120/40/27 116/41/27
f 118/41/28 122/40/28 121/39/28 117/38/28
f 117/42/23 121/43/23 119/44/23 115/45/23
f 116/44/24 120/45/24 122/46/24 118/47/24
f 119/38/29 123/39/29 124/40/29 120/41/29
f 122/41/30 126/40/30 125/39/30 121/38/30
f 121/42/23 125/43/23 123/44/23 119/45/23
f 120/44/24 124/45/24 126/46/24 122/47/24
f 123/38/22 127/39/22 128/40/22 124/41/22
f 126/41/21 130/40/21 129/39/21 125/38/21
f 125/42/23 129/43/23 127/44/23 123/45/23
f 124/44/24 128/45/24 130/46/24 126/47/24
f 127/38/26 131/39/26 132/40/26 128/41/26
f 130/41/25 134/40/25 133/39/25 129/38/25
f 129/42/23 133/43/23 131/44/23 127/45/23
f 128/44/24 132/45/24 134/46/24 130/47/24
f 131/38/28 135/39/28 136/40/28 132/41/28
f 134/41/27 138/40/27 137/39/27 133/38/27
f 133/42/23 137/43/23 135/44/23 131/45/23
f 132/44/24 136/45/24 138/46/24 134/47/24
f 135/38/30 107/39/30 108/40/30 136/41/30
f 138/41/29 110/40/29 109/39/29 137/38/29
f 137/42/23 109/43/23 107/44/23 135/45/23
f 136/44/24 108/45/24 110/46/24 138/47/24
o spokes.003
v 0.500000 0.825000 0.500000
v 0.500000 0.575000 0.500000
v 0.215228 0.825000 1.187500
v 0.215228 0.575000 1.187500
v -0.187500 0.825000 0.784772
v -0.187500 0.575000 0.784772
v -0.187500 0.825000 0.215228
v -0.187500 0.575000 0.215228
v 0.215228 0.825000 -0.187500
v 0.215228 0.575000 -0.187500
v 0.784772 0.825000 -0.187500
v 0.784772 0.575000 -0.187500
v 1.187500 0.825000 0.215228
v 1.187500 0.575000 0.215228
v 1.187500 0.825000 0.784772
v 1.187500 0.575000 0.784772
v 0.784772 0.825000 1.187500
v 0.784772 0.575000 1.187500
vn -0.0000 1.0000 -0.0000
vn -0.7071 -0.0000 0.7071
vn -0.0000 -1.0000 -0.0000
vn -1.0000 -0.0000 -0.0000
vn -0.7071 -0.0000 -0.7071
vn -0.0000 -0.0000 -1.0000
vn 0.7071 -0.0000 -0.7071
vn 1.0000 -0.0000 -0.0000
vn 0.7071 -0.0000 0.7071
vn -0.0000 -0.0000 1.0000
vt 0.953125 0.937500
vt 0.671875 0.937500
vt 0.812500 0.593750
vt 0.671875 0.906250
vt 0.953125 0.906250
s 1
usemtl tire_0
f 143/48/31 141/49/31 139/50/31
f 141/51/32 143/52/32 144/48/32 142/49/32
f 142/48/33 144/49/33 140/50/33
f 145/48/31 143/49/31 139/50/31
f 143/51/34 145/52/34 146/48/34 144/49/34
f 144/48/33 146/49/33 140/50/33
f 147/48/31 145/49/31 139/50/31
f 145/51/35 147/52/35 148/48/35 146/49/35
f 146/48/33 148/49/33 140/50/33
f 149/48/31 147/49/31 139/50/31
f 147/51/36 149/52/36 150/48/36 148/49/36
f 148/48/33 150/49/33 140/50/33
f 151/48/31 149/49/31 139/50/31
f 149/51/37 151/52/37 152/48/37 150/49/37
f 150/48/33 152/49/33 140/50/33
f 153/48/31 151/49/31 139/50/31
f 151/51/38 153/52/38 154/48/38 152/49/38
f 152/48/33 154/49/33 140/50/33
f 155/48/31 153/49/31 139/50/31
f 153/51/39 155/52/39 156/48/39 154/49/39
f 154/48/33 156/49/33 140/50/33
f 141/48/31 155/49/31 139/50/31
f 155/51/40 141/52/40 142/48/40 156/49/40
f 156/48/33 142/49/33 140/50/33
o core.004
v 0.250000 0.937500 0.750000
v 0.250000 0.937500 0.250000
v 0.750000 0.937500 0.750000
v 0.750000 0.937500 0.250000
v 0.250000 0.062500 0.750000
v 0.250000 0.062500 0.250000
v 0.750000 0.062500 0.750000
v 0.750000 0.062500 0.250000
vn -0.0000 1.0000 -0.0000
vn -0.0000 -1.0000 -0.0000
vn -1.0000 -0.0000 -0.0000
vn 1.0000 -0.0000 -0.0000
vn -0.0000 -0.0000 1.0000
vn -0.0000 -0.0000 -1.0000
vt 0.937500 0.062500
vt 0.937500 0.312500
vt 0.687500 0.312500
vt 0.687500 0.062500
vt 0.562500 0.343750
vt 0.625000 0.343750
vt 0.625000 0.375000
vt 0.562500 0.375000
s 1
usemtl tire_0
f 160/53/41 158/54/41 157/55/41 159/56/41
f 163/53/42 161/54/42 162/55/42 164/56/42
f 157/57/43 158/58/43 162/59/43 161/60/43
f 160/57/44 159/58/44 163/59/44 164/60/44
f 159/57/45 157/58/45 161/59/45 163/60/45
f 164/57/46 162/58/46 158/59/46 160/60/46
o belt_tire.004
v 0.914214 0.112500 1.500000
v 0.914214 0.487500 1.500000
v 0.839610 0.112500 1.319892
v 0.839610 0.487500 1.319892
v 1.500000 0.112500 0.914214
v 1.500000 0.487500 0.914213
v 1.319892 0.112500 0.839610
v 1.319892 0.487500 0.839610
v 1.500000 0.112500 0.085786
v 1.500000 0.487500 0.085786
v 1.319892 0.112500 0.160390
v 1.319892 0.487500 0.160389
v 0.914214 0.112500 -0.500000
v 0.914214 0.487500 -0.500000
v 0.839610 0.112500 -0.319892
v 0.839610 0.487500 -0.319892
v 0.085786 0.112500 -0.500000
v 0.085786 0.487500 -0.500000
v 0.160390 0.112500 -0.319892
v 0.160390 0.487500 -0.319892
v -0.500000 0.112500 0.085786
v -0.500000 0.487500 0.085786
v -0.319892 0.112500 0.160390
v -0.319892 0.487500 0.160389
v -0.500000 0.112500 0.914214
v -0.500000 0.487500 0.914213
v -0.319892 0.112500 0.839610
v -0.319892 0.487500 0.839610
v 0.085786 0.112500 1.500000
v 0.085786 0.487500 1.500000
v 0.160390 0.112500 1.319892
v 0.160390 0.487500 1.319892
v 0.914214 0.300000 1.500000
v 1.500000 0.300000 0.914213
v 1.500000 0.300000 0.085786
v 0.914214 0.300000 -0.500000
v 0.085786 0.300000 -0.500000
v -0.500000 0.300000 0.085786
v -0.500000 0.300000 0.914213
v 0.085786 0.300000 1.500000
vn 0.7071 -0.0000 0.7071
vn -0.7071 -0.0000 -0.7071
vn -0.0000 -1.0000 -0.0000
vn -0.0000 1.0000 -0.0000
vn 1.0000 -0.0000 -0.0000
vn -1.0000 -0.0000 -0.0000
vn 0.7071 -0.0000 -0.7071
vn -0.7071 -0.0000 0.7071
vn -0.0000 -0.0000 -1.0000
vn -0.0000 -0.0000 1.0000
vt 0.000000 0.343750
vt 0.437500 0.343750
vt 0.437500 0.437500
vt 0.000000 0.437500
vt 0.183362 0.562500
vt 0.156250 0.562500
vt 0.156250 0.531250
vt 0.183362 0.531250
vt 0.369667 0.000000
vt 0.036583 0.000000
vt 0.000000 0.093750
vt 0.406250 0.093750
vt 0.000000 0.062500
vt 0.437500 0.062500
vt 0.437500 0.156250
vt 0.000000 0.156250
s 1
usemtl tire_0
f 197/61/47 198/62/47 170/63/47 166/64/47
f 168/65/48 172/66/48 171/67/48 167/68/48
f 167/69/49 171/70/49 169/71/49 165/72/49
f 166/72/50 170/71/50 172/70/50 168/69/50
f 198/61/51 199/62/51 174/63/51 170/64/51
f 172/65/52 176/66/52 175/67/52 171/68/52
f 171/69/49 175/70/49 173/71/49 169/72/49
f 170/72/50 174/71/50 176/70/50 172/69/50
f 199/61/53 200/62/53 178/63/53 174/64/53
f 176/65/54 180/66/54 179/67/54 175/68/54
f 175/69/49 179/70/49 177/71/49 173/72/49
f 174/72/50 178/71/50 180/70/50 176/69/50
f 200/61/55 201/62/55 182/63/55 178/64/55
f 180/65/56 184/66/56 183/67/56 179/68/56
f 179/69/49 183/70/49 181/71/49 177/72/49
f 178/72/50 182/71/50 184/70/50 180/69/50
f 201/61/48 202/62/48 186/63/48 182/64/48
f 184/65/47 188/66/47 187/67/47 183/68/47
f 183/69/49 187/70/49 185/71/49 181/72/49
f 182/72/50 186/71/50 188/70/50 184/69/50
f 202/61/52 203/62/52 190/63/52 186/64/52
f 188/65/51 192/66/51 191/67/51 187/68/51
f 187/69/49 191/70/49 189/71/49 185/72/49
f 186/72/50 190/71/50 192/70/50 188/69/50
f 203/61/54 204/62/54 194/63/54 190/64/54
f 192/65/53 196/66/53 195/67/53 191/68/53
f 191/69/49 195/70/49 193/71/49 189/72/49
f 190/72/50 194/71/50 196/70/50 192/69/50
f 204/61/56 197/62/56 166/63/56 194/64/56
f 196/65/55 168/66/55 167/67/55 195/68/55
f 195/69/49 167/70/49 165/71/49 193/72/49
f 194/72/50 166/71/50 168/70/50 196/69/50
f 193/73/56 165/74/56 197/75/56 204/76/56
f 189/73/54 193/74/54 204/75/54 203/76/54
f 185/73/52 189/74/52 203/75/52 202/76/52
f 181/73/48 185/74/48 202/75/48 201/76/48
f 177/73/55 181/74/55 201/75/55 200/76/55
f 173/73/53 177/74/53 200/75/53 199/76/53
f 169/73/51 173/74/51 199/75/51 198/76/51
f 165/73/47 169/74/47 198/75/47 197/76/47
o core.005
v 0.062500 0.487500 0.312500
v 0.062500 0.487500 0.687500
v -0.062500 0.487500 0.312500
v -0.062500 0.487500 0.687500
v 0.062500 0.112500 0.312500
v 0.062500 0.112500 0.687500
v -0.062500 0.112500 0.312500
v -0.062500 0.112500 0.687500
v 0.062500 0.487500 0.687500
v 0.062500 0.487500 0.312500
v 0.062500 0.112500 0.312500
v 0.062500 0.112500 0.687500
v 0.312500 0.487500 0.062500
v 0.312500 0.112500 0.062500
v 0.135417 0.112500 0.651016
v 0.135417 0.112500 0.348985
v 0.687500 0.487500 0.062500
v 0.687500 0.112500 0.062500
v 0.348985 0.112500 0.135417
v 0.937500 0.487500 0.312500
v 0.937500 0.112500 0.312500
v 0.651016 0.112500 0.135417
v 0.937500 0.487500 0.687500
v 0.937500 0.112500 0.687500
v 0.864583 0.112500 0.348985
v 0.687500 0.487500 0.937500
v 0.687500 0.112500 0.937500
v 0.864583 0.112500 0.651016
v 0.312500 0.487500 0.937500
v 0.312500 0.112500 0.937500
v 0.651015 0.112500 0.864583
v 0.348984 0.112500 0.864583
v 0.500000 0.112500 0.500000
v 0.500000 0.487500 0.500000
v 0.135417 0.487500 0.348984
v 0.135417 0.487500 0.651015
v 0.348985 0.487500 0.864583
v 0.651016 0.487500 0.864583
v 0.864583 0.487500 0.651015
v 0.864583 0.487500 0.348984
v 0.651016 0.487500 0.135417
v 0.348985 0.487500 0.135417
v 0.687500 0.487500 0.062500
v 0.312500 0.487500 0.062500
v 0.687500 0.487500 -0.062500
v 0.312500 0.487500 -0.062500
v 0.687500 0.112500 0.062500
v 0.312500 0.112500 0.062500
v 0.687500 0.112500 -0.062500
v 0.312500 0.112500 -0.062500
v 0.937500 0.487500 0.687500
v 0.937500 0.487500 0.312500
v 1.062500 0.487500 0.687500
v 1.062500 0.487500 0.312500
v 0.937500 0.112500 0.687500
v 0.937500 0.112500 0.312500
v 1.062500 0.112500 0.687500
v 1.062500 0.112500 0.312500
v 0.312500 0.487500 0.937500
v 0.687500 0.487500 0.937500
v 0.312500 0.487500 1.062500
v 0.687500 0.487500 1.062500
v 0.312500 0.112500 0.937500
v 0.687500 0.112500 0.937500
v 0.312500 0.112500 1.062500
v 0.687500 0.112500 1.062500
vn -0.0000 1.0000 -0.0000
vn -0.0000 -1.0000 -0.0000
vn 1.0000 -0.0000 -0.0000
vn -1.0000 -0.0000 -0.0000
vn -0.0000 -0.0000 -1.0000
vn -0.0000 -0.0000 1.0000
vn -0.7071 -0.0000 -0.7071
vn 0.7071 -0.0000 -0.7071
vn 0.7071 -0.0000 0.7071
vn -0.7071 -0.0000 0.7071
vt 0.812500 0.468750
vt 0.812500 0.406250
vt 1.000000 0.406250
vt 1.000000 0.468750
vt 0.562500 0.000000
vt 0.625000 0.000000
vt 0.625000 0.375000
vt 0.562500 0.375000
vt 0.981759 0.375000
vt 0.830744 0.375000
vt 0.981759 0.437500
vt 0.830744 0.437500
vt 0.812500 0.187500
vt 1.000000 0.262500
vt 0.887500 0.375000
vt 1.000000 0.112500
vt 0.887500 0.000000
vt 0.737500 0.000000
vt 0.737500 0.375000
vt 0.625000 0.262500
vt 0.625000 0.112500
s 1
usemtl tire_0
f 208/77/57 206/78/57 205/79/57 207/80/57
f 211/77/58 209/78/58 210/79/58 212/80/58
f 205/81/59 206/82/59 210/83/59 209/84/59
f 208/81/60 207/82/60 211/83/60 212/84/60
f 207/81/61 205/82/61 209/83/61 211/84/61
f 212/81/62 210/82/62 206/83/62 208/84/62
f 213/81/60 214/82/60 215/83/60 216/84/60
f 214/81/63 217/82/63 218/83/63 215/84/63
f 219/85/58 216/79/58 215/78/58 220/86/58
f 217/81/61 221/82/61 222/83/61 218/84/61
f 220/87/58 215/80/58 218/77/58 223/88/58
f 221/81/64 224/82/64 225/83/64 222/84/64
f 223/85/58 218/79/58 222/78/58 226/86/58
f 224/81/59 227/82/59 228/83/59 225/84/59
f 226/87/58 222/80/58 225/77/58 229/88/58
f 227/81/65 230/82/65 231/83/65 228/84/65
f 229/85/58 225/79/58 228/78/58 232/86/58
f 230/81/62 233/82/62 234/83/62 231/84/62
f 232/87/58 228/80/58 231/77/58 235/88/58
f 233/81/66 213/82/66 216/83/66 234/84/66
f 235/85/58 231/79/58 234/78/58 236/86/58
f 236/87/58 234/80/58 216/77/58 219/88/58
f 237/89/58 236/90/58 219/91/58
f 237/89/58 235/92/58 236/90/58
f 237/89/58 232/93/58 235/92/58
f 237/89/58 229/94/58 232/93/58
f 238/89/57 239/91/57 240/95/57
f 238/89/57 240/95/57 241/96/57
f 238/89/57 241/96/57 242/97/57
f 237/89/58 226/97/58 229/94/58
f 238/89/57 243/94/57 244/93/57
f 238/89/57 242/97/57 243/94/57
f 238/89/57 244/93/57 245/92/57
f 238/89/57 245/92/57 246/90/57
f 237/89/58 223/96/58 226/97/58
f 246/87/57 217/80/57 214/77/57 239/88/57
f 238/89/57 246/90/57 239/91/57
f 245/85/57 221/79/57 217/78/57 246/86/57
f 244/87/57 224/80/57 221/77/57 245/88/57
f 237/89/58 220/95/58 223/96/58
f 242/87/57 230/80/57 227/77/57 243/88/57
f 243/85/57 227/79/57 224/78/57 244/86/57
f 241/85/57 233/79/57 230/78/57 242/86/57
f 240/87/57 213/80/57 233/77/57 241/88/57
f 237/89/58 219/91/58 220/95/58
f 239/85/57 214/79/57 213/78/57 240/86/57
f 250/77/57 248/78/57 247/79/57 249/80/57
f 253/77/58 251/78/58 252/79/58 254/80/58
f 247/81/62 248/82/62 252/83/62 251/84/62
f 250/81/61 249/82/61 253/83/61 254/84/61
f 249/81/59 247/82/59 251/83/59 253/84/59
f 254/81/60 252/82/60 248/83/60 250/84/60
f 258/77/57 256/78/57 255/79/57 257/80/57
f 261/77/58 259/78/58 260/79/58 262/80/58
f 255/81/60 256/82/60 260/83/60 259/84/60
f 258/81/59 257/82/59 261/83/59 262/84/59
f 257/81/62 255/82/62 259/83/62 261/84/62
f 262/81/61 260/82/61 256/83/61 258/84/61
f 266/77/57 264/78/57 263/79/57 265/80/57
f 269/77/58 267/78/58 268/79/58 270/80/58
f 263/81/61 264/82/61 268/83/61 267/84/61
f 266/81/62 265/82/62 269/83/62 270/84/62
f 265/81/60 263/82/60 267/83/60 269/84/60
f 270/81/59 268/82/59 264/83/59 266/84/59
o rim.004
v 0.156250 0.487500 1.312497
v 0.156250 0.112500 1.312500
v 0.218750 0.487500 1.187500
v 0.218750 0.112500 1.187500
v -0.312500 0.487500 0.843750
v -0.312500 0.112500 0.843750
v -0.187500 0.487500 0.781250
v -0.187500 0.112500 0.781250
v -0.312500 0.487500 0.156250
v -0.312500 0.112500 0.156250
v -0.187500 0.487500 0.218750
v -0.187500 0.112500 0.218750
v 0.156250 0.487500 -0.312497
v 0.156250 0.112500 -0.312500
v 0.218750 0.487500 -0.187500
v 0.218750 0.112500 -0.187500
v 0.843750 0.487500 -0.312497
v 0.843750 0.112500 -0.312500
v 0.781250 0.487500 -0.187500
v 0.781250 0.112500 -0.187500
v 1.312500 0.487500 0.156250
v 1.312500 0.112500 0.156250
v 1.187500 0.487500 0.218750
v 1.187500 0.112500 0.218750
v 1.312500 0.487500 0.843750
v 1.312500 0.112500 0.843750
v 1.187500 0.487500 0.781250
v 1.187500 0.112500 0.781250
v 0.843750 0.487500 1.312497
v 0.843750 0.112500 1.312500
v 0.781250 0.487500 1.187500
v 0.781250 0.112500 1.187500
vn -0.7071 -0.0000 0.7071
vn 0.7071 -0.0000 -0.7071
vn -0.0000 1.0000 -0.0000
vn -0.0000 -1.0000 -0.0000
vn -1.0000 -0.0000 -0.0000
vn 1.0000 -0.0000 -0.0000
vn -0.7071 -0.0000 -0.7071
vn 0.7071 -0.0000 0.7071
vn -0.0000 -0.0000 -1.0000
vn -0.0000 -0.0000 1.0000
vt 0.625000 0.000000
vt 0.562500 0.000000
vt 0.562500 0.375000
vt 0.625000 0.375000
vt 0.666127 0.937500
vt 0.958873 0.937500
vt 0.984375 1.000000
vt 0.640625 1.000000
vt 0.666128 0.937500
vt 0.958872 0.937500
s 1
usemtl tire_0
f 271/98/67 275/99/67 276/100/67 272/101/67
f 274/101/68 278/100/68 277/99/68 273/98/68
f 273/102/69 277/103/69 275/104/69 271/105/69
f 272/104/70 276/105/70 278/106/70 274/107/70
f 275/98/71 279/99/71 280/100/71 276/101/71
f 278/101/72 282/100/72 281/99/72 277/98/72
f 277/102/69 281/103/69 279/104/69 275/105/69
f 276/104/70 280/105/70 282/106/70 278/107/70
f 279/98/73 283/99/73 284/100/73 280/101/73
f 282/101/74 286/100/74 285/99/74 281/98/74
f 281/102/69 285/103/69 283/104/69 279/105/69
f 280/104/70 284/105/70 286/106/70 282/107/70
f 283/98/75 287/99/75 288/100/75 284/101/75
f 286/101/76 290/100/76 289/99/76 285/98/76
f 285/102/69 289/103/69 287/104/69 283/105/69
f 284/104/70 288/105/70 290/106/70 286/107/70
f 287/98/68 291/99/68 292/100/68 288/101/68
f 290/101/67 294/100/67 293/99/67 289/98/67
f 289/102/69 293/103/69 291/104/69 287/105/69
f 288/104/70 292/105/70 294/106/70 290/107/70
f 291/98/72 295/99/72 296/100/72 292/101/72
f 294/101/71 298/100/71 297/99/71 293/98/71
f 293/102/69 297/103/69 295/104/69 291/105/69
f 292/104/70 296/105/70 298/106/70 294/107/70
f 295/98/74 299/99/74 300/100/74 296/101/74
f 298/101/73 302/100/73 301/99/73 297/98/73
f 297/102/69 301/103/69 299/104/69 295/105/69
f 296/104/70 300/105/70 302/106/70 298/107/70
f 299/98/76 271/99/76 272/100/76 300/101/76
f 302/101/75 274/100/75 273/99/75 301/98/75
f 301/102/69 273/103/69 271/104/69 299/105/69
f 300/104/70 272/105/70 274/106/70 302/107/70
o spokes.004
v 0.500000 0.425000 0.500000
v 0.500000 0.175000 0.500000
v 0.215228 0.425000 1.187500
v 0.215228 0.175000 1.187500
v -0.187500 0.425000 0.784772
v -0.187500 0.175000 0.784772
v -0.187500 0.425000 0.215228
v -0.187500 0.175000 0.215228
v 0.215228 0.425000 -0.187500
v 0.215228 0.175000 -0.187500
v 0.784772 0.425000 -0.187500
v 0.784772 0.175000 -0.187500
v 1.187500 0.425000 0.215228
v 1.187500 0.175000 0.215228
v 1.187500 0.425000 0.784772
v 1.187500 0.175000 0.784772
v 0.784772 0.425000 1.187500
v 0.784772 0.175000 1.187500
vn -0.0000 1.0000 -0.0000
vn -0.7071 -0.0000 0.7071
vn -0.0000 -1.0000 -0.0000
vn -1.0000 -0.0000 -0.0000
vn -0.7071 -0.0000 -0.7071
vn -0.0000 -0.0000 -1.0000
vn 0.7071 -0.0000 -0.7071
vn 1.0000 -0.0000 -0.0000
vn 0.7071 -0.0000 0.7071
vn -0.0000 -0.0000 1.0000
vt 0.953125 0.937500
vt 0.671875 0.937500
vt 0.812500 0.593750
vt 0.671875 0.906250
vt 0.953125 0.906250
s 1
usemtl tire_0
f 307/108/77 305/109/77 303/110/77
f 305/111/78 307/112/78 308/108/78 306/109/78
f 306/108/79 308/109/79 304/110/79
f 309/108/77 307/109/77 303/110/77
f 307/111/80 309/112/80 310/108/80 308/109/80
f 308/108/79 310/109/79 304/110/79
f 311/108/77 309/109/77 303/110/77
f 309/111/81 311/112/81 312/108/81 310/109/81
f 310/108/79 312/109/79 304/110/79
f 313/108/77 311/109/77 303/110/77
f 311/111/82 313/112/82 314/108/82 312/109/82
f 312/108/79 314/109/79 304/110/79
f 315/108/77 313/109/77 303/110/77
f 313/111/83 315/112/83 316/108/83 314/109/83
f 314/108/79 316/109/79 304/110/79
f 317/108/77 315/109/77 303/110/77
f 315/111/84 317/112/84 318/108/84 316/109/84
f 316/108/79 318/109/79 304/110/79
f 319/108/77 317/109/77 303/110/77
f 317/111/85 319/112/85 320/108/85 318/109/85
f 318/108/79 320/109/79 304/110/79
f 305/108/77 319/109/77 303/110/77
f 319/111/86 305/112/86 306/108/86 320/109/86
f 320/108/79 306/109/79 304/110/79
o core.007
v 0.062500 0.937500 0.562500
v 0.062500 0.937500 0.437500
v 0.187500 0.937500 0.562500
v 0.187500 0.937500 0.437500
v 0.062500 0.062500 0.562500
v 0.062500 0.062500 0.437500
v 0.187500 0.062500 0.562500
v 0.187500 0.062500 0.437500
v 0.437500 0.937500 0.187500
v 0.437500 0.937500 0.062500
v 0.562500 0.937500 0.187500
v 0.562500 0.937500 0.062500
v 0.437500 0.062500 0.187500
v 0.437500 0.062500 0.062500
v 0.562500 0.062500 0.187500
v 0.562500 0.062500 0.062500
v 0.812500 0.937500 0.562500
v 0.812500 0.937500 0.437500
v 0.937500 0.937500 0.562500
v 0.937500 0.937500 0.437500
v 0.812500 0.062500 0.562500
v 0.812500 0.062500 0.437500
v 0.937500 0.062500 0.562500
v 0.937500 0.062500 0.437500
v 0.437500 0.937500 0.937500
v 0.437500 0.937500 0.812500
v 0.562500 0.937500 0.937500
v 0.562500 0.937500 0.812500
v 0.437500 0.062500 0.937500
v 0.437500 0.062500 0.812500
v 0.562500 0.062500 0.937500
v 0.562500 0.062500 0.812500
vn -0.0000 1.0000 -0.0000
vn -0.0000 -1.0000 -0.0000
vn -1.0000 -0.0000 -0.0000
vn 1.0000 -0.0000 -0.0000
vn -0.0000 -0.0000 1.0000
vn -0.0000 -0.0000 -1.0000
vt 0.812500 0.375000
vt 0.812500 0.437500
vt 0.750000 0.437500
vt 0.750000 0.375000
s 1
usemtl tire_0
f 324/113/87 322/114/87 321/115/87 323/116/87
f 327/116/88 325/115/88 326/114/88 328/113/88
f 321/114/89 322/113/89 326/116/89 325/115/89
f 324/113/90 323/114/90 327/115/90 328/116/90
f 323/113/91 321/114/91 325/115/91 327/116/91
f 328/113/92 326/114/92 322/115/92 324/116/92
f 332/113/87 330/114/87 329/115/87 331/116/87
f 335/116/88 333/115/88 334/114/88 336/113/88
f 329/114/89 330/113/89 334/116/89 333/115/89
f 332/113/90 331/114/90 335/115/90 336/116/90
f 331/113/91 329/114/91 333/115/91 335/116/91
f 336/113/92 334/114/92 330/115/92 332/116/92
f 340/113/87 338/114/87 337/115/87 339/116/87
f 343/116/88 341/115/88 342/114/88 344/113/88
f 337/114/89 338/113/89 342/116/89 341/115/89
f 340/113/90 339/114/90 343/115/90 344/116/90
f 339/113/91 337/114/91 341/115/91 343/116/91
f 344/113/92 342/114/92 338/115/92 340/116/92
f 348/113/87 346/114/87 345/115/87 347/116/87
f 351/116/88 349/115/88 350/114/88 352/113/88
f 345/114/89 346/113/89 350/116/89 349/115/89
f 348/113/90 347/114/90 351/115/90 352/116/90
f 347/113/91 345/114/91 349/115/91 351/116/91
f 352/113/92 350/114/92 346/115/92 348/116/92
o shaft.002
v 0.375000 0.000000 0.625000
v 0.375000 0.000000 0.375000
v 0.375000 1.000000 0.625000
v 0.375000 1.000000 0.375000
v 0.625000 0.000000 0.375000
v 0.625000 0.000000 0.625000
v 0.625000 1.000000 0.375000
v 0.625000 1.000000 0.625000
vn -0.0000 -0.0000 -1.0000
vn -1.0000 -0.0000 -0.0000
vn -0.0000 -0.0000 1.0000
vn 1.0000 -0.0000 -0.0000
vn -0.0000 -1.0000 -0.0000
vn -0.0000 1.0000 -0.0000
vt 0.375000 0.000000
vt 0.625000 0.000000
vt 0.625000 1.000000
vt 0.375000 1.000000
vt 0.375000 0.375000
vt 0.625000 0.375000
vt 0.625000 0.625000
vt 0.375000 0.625000
s 1
usemtl axis
f 356/117/93 359/118/93 357/119/93 354/120/93
f 355/117/94 356/118/94 354/119/94 353/120/94
f 360/117/95 355/118/95 353/119/95 358/120/95
f 359/117/96 360/118/96 358/119/96 357/120/96
usemtl axis_top
f 358/121/97 353/122/97 354/123/97 357/124/97
f 359/121/98 356/122/98 355/123/98 360/124/98
