# Blender 4.4.3
# www.blender.org
mtllib separated_small_tire_item.mtl
o belt_tire.003
v 0.810660 0.375000 1.249998
v 0.810660 0.625000 1.249998
v 0.732703 0.375000 1.061792
v 0.732703 0.625000 1.061792
v 1.250000 0.375000 0.810658
v 1.250000 0.625000 0.810658
v 1.061794 0.375000 0.732701
v 1.061794 0.625000 0.732701
v 1.250000 0.375000 0.189338
v 1.250000 0.625000 0.189338
v 1.061794 0.375000 0.267296
v 1.061794 0.625000 0.267295
v 0.810660 0.375000 -0.250002
v 0.810660 0.625000 -0.250002
v 0.732703 0.375000 -0.061796
v 0.732703 0.625000 -0.061796
v 0.189340 0.375000 -0.250002
v 0.189340 0.625000 -0.250002
v 0.267297 0.375000 -0.061796
v 0.267297 0.625000 -0.061796
v -0.250000 0.375000 0.189338
v -0.250000 0.625000 0.189338
v -0.061794 0.375000 0.267296
v -0.061794 0.625000 0.267295
v -0.250000 0.375000 0.810658
v -0.250000 0.625000 0.810658
v -0.061794 0.375000 0.732701
v -0.061794 0.625000 0.732701
v 0.189340 0.375000 1.249998
v 0.189340 0.625000 1.249998
v 0.267297 0.375000 1.061792
v 0.267297 0.625000 1.061792
v -0.250000 0.500000 0.810658
v -0.250000 0.500000 0.189338
v 0.189340 0.500000 -0.250002
v 0.810660 0.500000 -0.250002
v 1.250000 0.500000 0.189338
v 1.250000 0.500000 0.810658
v 0.810660 0.500000 1.249998
v 0.189340 0.500000 1.249998
vn 0.7071 -0.0000 0.7071
vn -0.7071 -0.0000 -0.7071
vn -0.0000 -1.0000 -0.0000
vn -0.0000 1.0000 -0.0000
vn 1.0000 -0.0000 -0.0000
vn -1.0000 -0.0000 -0.0000
vn 0.7071 -0.0000 -0.7071
vn -0.7071 -0.0000 0.7071
vn -0.0000 -0.0000 -1.0000
vn -0.0000 -0.0000 1.0000
vt 0.437500 0.000000
vt 0.562500 0.000000
vt 0.562500 0.312500
vt 0.437500 0.312500
vt 0.357700 0.906250
vt 0.125000 0.906250
vt 0.125000 0.875000
vt 0.357700 0.875000
vt 0.101712 0.000000
vt 0.335788 0.000000
vt 0.375000 0.093750
vt 0.062500 0.093750
s 1
usemtl tire_0
f 2/1/1 39/2/1 38/3/1 6/4/1
f 4/5/2 8/6/2 7/7/2 3/8/2
f 3/9/3 7/10/3 5/11/3 1/12/3
f 2/11/4 6/12/4 8/9/4 4/10/4
f 6/1/5 38/2/5 37/3/5 10/4/5
f 8/5/6 12/6/6 11/7/6 7/8/6
f 7/9/3 11/10/3 9/11/3 5/12/3
f 6/11/4 10/12/4 12/9/4 8/10/4
f 10/1/7 37/2/7 36/3/7 14/4/7
f 12/5/8 16/6/8 15/7/8 11/8/8
f 11/9/3 15/10/3 13/11/3 9/12/3
f 10/11/4 14/12/4 16/9/4 12/10/4
f 14/1/9 36/2/9 35/3/9 18/4/9
f 16/5/10 20/6/10 19/7/10 15/8/10
f 15/9/3 19/10/3 17/11/3 13/12/3
f 14/11/4 18/12/4 20/9/4 16/10/4
f 18/1/2 35/2/2 34/3/2 22/4/2
f 20/5/1 24/6/1 23/7/1 19/8/1
f 19/9/3 23/10/3 21/11/3 17/12/3
f 18/11/4 22/12/4 24/9/4 20/10/4
f 22/1/6 34/2/6 33/3/6 26/4/6
f 24/5/5 28/6/5 27/7/5 23/8/5
f 23/9/3 27/10/3 25/11/3 21/12/3
f 22/11/4 26/12/4 28/9/4 24/10/4
f 26/1/8 33/2/8 40/3/8 30/4/8
f 28/5/7 32/6/7 31/7/7 27/8/7
f 27/9/3 31/10/3 29/11/3 25/12/3
f 26/11/4 30/12/4 32/9/4 28/10/4
f 30/1/10 40/2/10 39/3/10 2/4/10
f 32/5/9 4/6/9 3/7/9 31/8/9
f 31/9/3 3/10/3 1/11/3 29/12/3
f 30/11/4 2/12/4 4/9/4 32/10/4
f 25/4/6 33/3/6 34/2/6 21/1/6
f 21/4/2 34/3/2 35/2/2 17/1/2
f 17/4/9 35/3/9 36/2/9 13/1/9
f 13/4/7 36/3/7 37/2/7 9/1/7
f 9/4/5 37/3/5 38/2/5 5/1/5
f 5/4/1 38/3/1 39/2/1 1/1/1
f 1/4/10 39/3/10 40/2/10 29/1/10
f 29/4/8 40/3/8 33/2/8 25/1/8
o core.003
v 0.250000 0.656250 0.750000
v 0.250000 0.656250 0.250000
v 0.750000 0.656250 0.750000
v 0.750000 0.656250 0.250000
v 0.250000 0.343750 0.750000
v 0.250000 0.343750 0.250000
v 0.750000 0.343750 0.750000
v 0.750000 0.343750 0.250000
vn -0.0000 1.0000 -0.0000
vn -0.0000 -1.0000 -0.0000
vn -1.0000 -0.0000 -0.0000
vn 1.0000 -0.0000 -0.0000
vn -0.0000 -0.0000 1.0000
vn -0.0000 -0.0000 -1.0000
vt 0.937500 0.062500
vt 0.937500 0.312500
vt 0.687500 0.312500
vt 0.687500 0.062500
vt 0.562500 0.343750
vt 0.625000 0.343750
vt 0.625000 0.375000
vt 0.562500 0.375000
s 1
usemtl tire_0
f 44/13/11 42/14/11 41/15/11 43/16/11
f 47/13/12 45/14/12 46/15/12 48/16/12
f 41/17/13 42/18/13 46/19/13 45/20/13
f 44/17/14 43/18/14 47/19/14 48/20/14
f 43/17/15 41/18/15 45/19/15 47/20/15
f 48/17/16 46/18/16 42/19/16 44/20/16
o shaft.001
v 0.375000 0.000000 0.625000
v 0.375000 0.000000 0.375000
v 0.375000 1.000000 0.625000
v 0.375000 1.000000 0.375000
v 0.625000 0.000000 0.375000
v 0.625000 0.000000 0.625000
v 0.625000 1.000000 0.375000
v 0.625000 1.000000 0.625000
vn -0.0000 -0.0000 -1.0000
vn -1.0000 -0.0000 -0.0000
vn -0.0000 -0.0000 1.0000
vn 1.0000 -0.0000 -0.0000
vn -0.0000 -1.0000 -0.0000
vn -0.0000 1.0000 -0.0000
vt 0.375000 0.000000
vt 0.625000 0.000000
vt 0.625000 1.000000
vt 0.375000 1.000000
vt 0.375000 0.375000
vt 0.625000 0.375000
vt 0.625000 0.625000
vt 0.375000 0.625000
s 1
usemtl axis
f 52/21/17 55/22/17 53/23/17 50/24/17
f 51/21/18 52/22/18 50/23/18 49/24/18
f 56/21/19 51/22/19 49/23/19 54/24/19
f 55/21/20 56/22/20 54/23/20 53/24/20
usemtl axis_top
f 54/25/21 49/26/21 50/27/21 53/28/21
f 55/25/22 52/26/22 51/27/22 56/28/22
o spokes.003
v 0.732995 0.375000 -0.062500
v 0.500000 0.625000 0.500000
v 0.500000 0.375000 0.500000
v 0.267005 0.625000 1.062500
v 0.267005 0.375000 1.062500
v -0.062500 0.625000 0.732995
v -0.062500 0.375000 0.732995
v -0.062500 0.625000 0.267005
v -0.062500 0.375000 0.267005
v 0.267005 0.625000 -0.062500
v 0.267005 0.375000 -0.062500
v 0.732995 0.625000 -0.062500
v 1.062500 0.625000 0.267005
v 1.062500 0.375000 0.267005
v 1.062500 0.625000 0.732995
v 1.062500 0.375000 0.732995
v 0.732995 0.625000 1.062500
v 0.732995 0.375000 1.062500
vn -0.0000 1.0000 -0.0000
vn -0.7071 -0.0000 0.7071
vn -0.0000 -1.0000 -0.0000
vn -1.0000 -0.0000 -0.0000
vn -0.7071 -0.0000 -0.7071
vn -0.0000 -0.0000 -1.0000
vn 0.7071 -0.0000 -0.7071
vn 1.0000 -0.0000 -0.0000
vn 0.7071 -0.0000 0.7071
vn -0.0000 -0.0000 1.0000
vt 0.929688 0.937500
vt 0.695312 0.937500
vt 0.812500 0.656250
vt 0.695312 0.906250
vt 0.929688 0.906250
s 1
usemtl tire_0
f 62/29/23 60/30/23 58/31/23
f 60/32/24 62/33/24 63/29/24 61/30/24
f 61/29/25 63/30/25 59/31/25
f 64/29/23 62/30/23 58/31/23
f 62/32/26 64/33/26 65/29/26 63/30/26
f 63/29/25 65/30/25 59/31/25
f 66/29/23 64/30/23 58/31/23
f 64/32/27 66/33/27 67/29/27 65/30/27
f 65/29/25 67/30/25 59/31/25
f 68/29/23 66/30/23 58/31/23
f 66/32/28 68/33/28 57/29/28 67/30/28
f 67/29/25 57/30/25 59/31/25
f 69/29/23 68/30/23 58/31/23
f 68/32/29 69/33/29 70/29/29 57/30/29
f 57/29/25 70/30/25 59/31/25
f 71/29/23 69/30/23 58/31/23
f 69/32/30 71/33/30 72/29/30 70/30/30
f 70/29/25 72/30/25 59/31/25
f 73/29/23 71/30/23 58/31/23
f 71/32/31 73/33/31 74/29/31 72/30/31
f 72/29/25 74/30/25 59/31/25
f 60/29/23 73/30/23 58/31/23
f 73/32/32 60/33/32 61/29/32 74/30/32
f 74/29/25 61/30/25 59/31/25
