# Blender 4.4.3
# www.blender.org
mtllib double_small_tire_block.mtl
o shaft.002
v 0.375000 0.000000 0.625000
v 0.375000 0.000000 0.375000
v 0.375000 1.000000 0.625000
v 0.375000 1.000000 0.375000
v 0.625000 0.000000 0.375000
v 0.625000 0.000000 0.625000
v 0.625000 1.000000 0.375000
v 0.625000 1.000000 0.625000
vn -0.0000 -0.0000 -1.0000
vn -1.0000 -0.0000 -0.0000
vn -0.0000 -0.0000 1.0000
vn 1.0000 -0.0000 -0.0000
vn -0.0000 -1.0000 -0.0000
vn -0.0000 1.0000 -0.0000
vt 0.375000 0.000000
vt 0.625000 0.000000
vt 0.625000 1.000000
vt 0.375000 1.000000
vt 0.375000 0.375000
vt 0.625000 0.375000
vt 0.625000 0.625000
vt 0.375000 0.625000
s 1
usemtl axis
f 4/1/1 7/2/1 5/3/1 2/4/1
f 3/1/2 4/2/2 2/3/2 1/4/2
f 8/1/3 3/2/3 1/3/3 6/4/3
f 7/1/4 8/2/4 6/3/4 5/4/4
usemtl axis_top
f 6/5/5 1/6/5 2/7/5 5/8/5
f 7/5/6 4/6/6 3/7/6 8/8/6
o belt_tire.005
v 0.810660 0.531250 1.249998
v 0.810660 0.781250 1.249998
v 0.732703 0.531250 1.061792
v 0.732703 0.781250 1.061792
v 1.250000 0.531250 0.810658
v 1.250000 0.781250 0.810658
v 1.061794 0.531250 0.732701
v 1.061794 0.781250 0.732701
v 1.250000 0.531250 0.189338
v 1.250000 0.781250 0.189338
v 1.061794 0.531250 0.267296
v 1.061794 0.781250 0.267295
v 0.810660 0.531250 -0.250002
v 0.810660 0.781250 -0.250002
v 0.732703 0.531250 -0.061796
v 0.732703 0.781250 -0.061796
v 0.189340 0.531250 -0.250002
v 0.189340 0.781250 -0.250002
v 0.267297 0.531250 -0.061796
v 0.267297 0.781250 -0.061796
v -0.250000 0.531250 0.189338
v -0.250000 0.781250 0.189338
v -0.061794 0.531250 0.267296
v -0.061794 0.781250 0.267295
v -0.250000 0.531250 0.810658
v -0.250000 0.781250 0.810658
v -0.061794 0.531250 0.732701
v -0.061794 0.781250 0.732701
v 0.189340 0.531250 1.249998
v 0.189340 0.781250 1.249998
v 0.267297 0.531250 1.061792
v 0.267297 0.781250 1.061792
v -0.250000 0.656250 0.810658
v -0.250000 0.656250 0.189338
v 0.189340 0.656250 -0.250002
v 0.810660 0.656250 -0.250002
v 1.250000 0.656250 0.189338
v 1.250000 0.656250 0.810658
v 0.810660 0.656250 1.249998
v 0.189340 0.656250 1.249998
vn 0.7071 -0.0000 0.7071
vn -0.7071 -0.0000 -0.7071
vn -0.0000 -1.0000 -0.0000
vn -0.0000 1.0000 -0.0000
vn 1.0000 -0.0000 -0.0000
vn -1.0000 -0.0000 -0.0000
vn 0.7071 -0.0000 -0.7071
vn -0.7071 -0.0000 0.7071
vn -0.0000 -0.0000 -1.0000
vn -0.0000 -0.0000 1.0000
vt 0.500000 0.000000
vt 0.562500 0.000000
vt 0.562500 0.312500
vt 0.500000 0.312500
vt 0.357700 0.906250
vt 0.125000 0.906250
vt 0.125000 0.875000
vt 0.357700 0.875000
vt 0.101712 0.000000
vt 0.335788 0.000000
vt 0.375000 0.093750
vt 0.062500 0.093750
s 1
usemtl tire_0
f 10/9/7 47/10/7 46/11/7 14/12/7
f 12/13/8 16/14/8 15/15/8 11/16/8
f 11/17/9 15/18/9 13/19/9 9/20/9
f 10/19/10 14/20/10 16/17/10 12/18/10
f 14/9/11 46/10/11 45/11/11 18/12/11
f 16/13/12 20/14/12 19/15/12 15/16/12
f 15/17/9 19/18/9 17/19/9 13/20/9
f 14/19/10 18/20/10 20/17/10 16/18/10
f 18/9/13 45/10/13 44/11/13 22/12/13
f 20/13/14 24/14/14 23/15/14 19/16/14
f 19/17/9 23/18/9 21/19/9 17/20/9
f 18/19/10 22/20/10 24/17/10 20/18/10
f 22/9/15 44/10/15 43/11/15 26/12/15
f 24/13/16 28/14/16 27/15/16 23/16/16
f 23/17/9 27/18/9 25/19/9 21/20/9
f 22/19/10 26/20/10 28/17/10 24/18/10
f 26/9/8 43/10/8 42/11/8 30/12/8
f 28/13/7 32/14/7 31/15/7 27/16/7
f 27/17/9 31/18/9 29/19/9 25/20/9
f 26/19/10 30/20/10 32/17/10 28/18/10
f 30/9/12 42/10/12 41/11/12 34/12/12
f 32/13/11 36/14/11 35/15/11 31/16/11
f 31/17/9 35/18/9 33/19/9 29/20/9
f 30/19/10 34/20/10 36/17/10 32/18/10
f 34/9/14 41/10/14 48/11/14 38/12/14
f 36/13/13 40/14/13 39/15/13 35/16/13
f 35/17/9 39/18/9 37/19/9 33/20/9
f 34/19/10 38/20/10 40/17/10 36/18/10
f 38/9/16 48/10/16 47/11/16 10/12/16
f 40/13/15 12/14/15 11/15/15 39/16/15
f 39/17/9 11/18/9 9/19/9 37/20/9
f 38/19/10 10/20/10 12/17/10 40/18/10
f 33/12/12 41/11/12 42/10/12 29/9/12
f 29/12/8 42/11/8 43/10/8 25/9/8
f 25/12/15 43/11/15 44/10/15 21/9/15
f 21/12/13 44/11/13 45/10/13 17/9/13
f 17/12/11 45/11/11 46/10/11 13/9/11
f 13/12/7 46/11/7 47/10/7 9/9/7
f 9/12/16 47/11/16 48/10/16 37/9/16
f 37/12/14 48/11/14 41/10/14 33/9/14
o belt_tire.007
v 0.810660 0.218750 1.249998
v 0.810660 0.468750 1.249998
v 0.732703 0.218750 1.061792
v 0.732703 0.468750 1.061792
v 1.250000 0.218750 0.810658
v 1.250000 0.468750 0.810658
v 1.061794 0.218750 0.732701
v 1.061794 0.468750 0.732701
v 1.250000 0.218750 0.189338
v 1.250000 0.468750 0.189338
v 1.061794 0.218750 0.267295
v 1.061794 0.468750 0.267295
v 0.810660 0.218750 -0.250002
v 0.810660 0.468750 -0.250002
v 0.732703 0.218750 -0.061796
v 0.732703 0.468750 -0.061796
v 0.189340 0.218750 -0.250002
v 0.189340 0.468750 -0.250002
v 0.267297 0.218750 -0.061796
v 0.267297 0.468750 -0.061796
v -0.250000 0.218750 0.189338
v -0.250000 0.468750 0.189338
v -0.061794 0.218750 0.267295
v -0.061794 0.468750 0.267295
v -0.250000 0.218750 0.810658
v -0.250000 0.468750 0.810658
v -0.061794 0.218750 0.732701
v -0.061794 0.468750 0.732701
v 0.189340 0.218750 1.249998
v 0.189340 0.468750 1.249998
v 0.267297 0.218750 1.061792
v 0.267297 0.468750 1.061792
v -0.250000 0.343750 0.810658
v -0.250000 0.343750 0.189338
v 0.189340 0.343750 -0.250002
v 0.810660 0.343750 -0.250002
v 1.250000 0.343750 0.189338
v 1.250000 0.343750 0.810658
v 0.810660 0.343750 1.249998
v 0.189340 0.343750 1.249998
vn 0.7071 -0.0000 0.7071
vn -0.7071 -0.0000 -0.7071
vn -0.0000 -1.0000 -0.0000
vn -0.0000 1.0000 -0.0000
vn 1.0000 -0.0000 -0.0000
vn -1.0000 -0.0000 -0.0000
vn 0.7071 -0.0000 -0.7071
vn -0.7071 -0.0000 0.7071
vn -0.0000 -0.0000 -1.0000
vn -0.0000 -0.0000 1.0000
vt 0.500000 0.000000
vt 0.562500 0.000000
vt 0.562500 0.312500
vt 0.500000 0.312500
vt 0.357700 0.906250
vt 0.125000 0.906250
vt 0.125000 0.875000
vt 0.357700 0.875000
vt 0.101712 0.000000
vt 0.335788 0.000000
vt 0.375000 0.093750
vt 0.062500 0.093750
s 1
usemtl tire_0
f 50/21/17 87/22/17 86/23/17 54/24/17
f 52/25/18 56/26/18 55/27/18 51/28/18
f 51/29/19 55/30/19 53/31/19 49/32/19
f 50/31/20 54/32/20 56/29/20 52/30/20
f 54/21/21 86/22/21 85/23/21 58/24/21
f 56/25/22 60/26/22 59/27/22 55/28/22
f 55/29/19 59/30/19 57/31/19 53/32/19
f 54/31/20 58/32/20 60/29/20 56/30/20
f 58/21/23 85/22/23 84/23/23 62/24/23
f 60/25/24 64/26/24 63/27/24 59/28/24
f 59/29/19 63/30/19 61/31/19 57/32/19
f 58/31/20 62/32/20 64/29/20 60/30/20
f 62/21/25 84/22/25 83/23/25 66/24/25
f 64/25/26 68/26/26 67/27/26 63/28/26
f 63/29/19 67/30/19 65/31/19 61/32/19
f 62/31/20 66/32/20 68/29/20 64/30/20
f 66/21/18 83/22/18 82/23/18 70/24/18
f 68/25/17 72/26/17 71/27/17 67/28/17
f 67/29/19 71/30/19 69/31/19 65/32/19
f 66/31/20 70/32/20 72/29/20 68/30/20
f 70/21/22 82/22/22 81/23/22 74/24/22
f 72/25/21 76/26/21 75/27/21 71/28/21
f 71/29/19 75/30/19 73/31/19 69/32/19
f 70/31/20 74/32/20 76/29/20 72/30/20
f 74/21/24 81/22/24 88/23/24 78/24/24
f 76/25/23 80/26/23 79/27/23 75/28/23
f 75/29/19 79/30/19 77/31/19 73/32/19
f 74/31/20 78/32/20 80/29/20 76/30/20
f 78/21/26 88/22/26 87/23/26 50/24/26
f 80/25/25 52/26/25 51/27/25 79/28/25
f 79/29/19 51/30/19 49/31/19 77/32/19
f 78/31/20 50/32/20 52/29/20 80/30/20
f 73/24/22 81/23/22 82/22/22 69/21/22
f 69/24/18 82/23/18 83/22/18 65/21/18
f 65/24/25 83/23/25 84/22/25 61/21/25
f 61/24/23 84/23/23 85/22/23 57/21/23
f 57/24/21 85/23/21 86/22/21 53/21/21
f 53/24/17 86/23/17 87/22/17 49/21/17
f 49/24/26 87/23/26 88/22/26 77/21/26
f 77/24/24 88/23/24 81/22/24 73/21/24
o core.005
v 0.250000 0.812500 0.750000
v 0.250000 0.812500 0.250000
v 0.750000 0.812500 0.750000
v 0.750000 0.812500 0.250000
v 0.250000 0.187500 0.750000
v 0.250000 0.187500 0.250000
v 0.750000 0.187500 0.750000
v 0.750000 0.187500 0.250000
vn -0.0000 1.0000 -0.0000
vn -0.0000 -1.0000 -0.0000
vn -1.0000 -0.0000 -0.0000
vn 1.0000 -0.0000 -0.0000
vn -0.0000 -0.0000 1.0000
vn -0.0000 -0.0000 -1.0000
vt 0.937500 0.062500
vt 0.937500 0.312500
vt 0.687500 0.312500
vt 0.687500 0.062500
vt 0.562500 0.343750
vt 0.625000 0.343750
vt 0.625000 0.375000
vt 0.562500 0.375000
s 1
usemtl tire_0
f 92/33/27 90/34/27 89/35/27 91/36/27
f 95/33/28 93/34/28 94/35/28 96/36/28
f 89/37/29 90/38/29 94/39/29 93/40/29
f 92/37/30 91/38/30 95/39/30 96/40/30
f 91/37/31 89/38/31 93/39/31 95/40/31
f 96/37/32 94/38/32 90/39/32 92/40/32
o spokes.005
v 0.732995 0.531250 -0.062500
v 0.500000 0.781250 0.500000
v 0.500000 0.531250 0.500000
v 0.267005 0.781250 1.062500
v 0.267005 0.531250 1.062500
v -0.062500 0.781250 0.732995
v -0.062500 0.531250 0.732995
v -0.062500 0.781250 0.267005
v -0.062500 0.531250 0.267005
v 0.267005 0.781250 -0.062500
v 0.267005 0.531250 -0.062500
v 0.732995 0.781250 -0.062500
v 1.062500 0.781250 0.267005
v 1.062500 0.531250 0.267005
v 1.062500 0.781250 0.732995
v 1.062500 0.531250 0.732995
v 0.732995 0.781250 1.062500
v 0.732995 0.531250 1.062500
vn -0.0000 1.0000 -0.0000
vn -0.7071 -0.0000 0.7071
vn -0.0000 -1.0000 -0.0000
vn -1.0000 -0.0000 -0.0000
vn -0.7071 -0.0000 -0.7071
vn -0.0000 -0.0000 -1.0000
vn 0.7071 -0.0000 -0.7071
vn 1.0000 -0.0000 -0.0000
vn 0.7071 -0.0000 0.7071
vn -0.0000 -0.0000 1.0000
vt 0.929688 0.937500
vt 0.695312 0.937500
vt 0.812500 0.656250
vt 0.695312 0.906250
vt 0.929688 0.906250
s 1
usemtl tire_0
f 102/41/33 100/42/33 98/43/33
f 100/44/34 102/45/34 103/41/34 101/42/34
f 101/41/35 103/42/35 99/43/35
f 104/41/33 102/42/33 98/43/33
f 102/44/36 104/45/36 105/41/36 103/42/36
f 103/41/35 105/42/35 99/43/35
f 106/41/33 104/42/33 98/43/33
f 104/44/37 106/45/37 107/41/37 105/42/37
f 105/41/35 107/42/35 99/43/35
f 108/41/33 106/42/33 98/43/33
f 106/44/38 108/45/38 97/41/38 107/42/38
f 107/41/35 97/42/35 99/43/35
f 109/41/33 108/42/33 98/43/33
f 108/44/39 109/45/39 110/41/39 97/42/39
f 97/41/35 110/42/35 99/43/35
f 111/41/33 109/42/33 98/43/33
f 109/44/40 111/45/40 112/41/40 110/42/40
f 110/41/35 112/42/35 99/43/35
f 113/41/33 111/42/33 98/43/33
f 111/44/41 113/45/41 114/41/41 112/42/41
f 112/41/35 114/42/35 99/43/35
f 100/41/33 113/42/33 98/43/33
f 113/44/42 100/45/42 101/41/42 114/42/42
f 114/41/35 101/42/35 99/43/35
o spokes.007
v 0.732995 0.218750 -0.062500
v 0.500000 0.468750 0.500000
v 0.500000 0.218750 0.500000
v 0.267005 0.468750 1.062500
v 0.267005 0.218750 1.062500
v -0.062500 0.468750 0.732995
v -0.062500 0.218750 0.732995
v -0.062500 0.468750 0.267005
v -0.062500 0.218750 0.267005
v 0.267005 0.468750 -0.062500
v 0.267005 0.218750 -0.062500
v 0.732995 0.468750 -0.062500
v 1.062500 0.468750 0.267005
v 1.062500 0.218750 0.267005
v 1.062500 0.468750 0.732995
v 1.062500 0.218750 0.732995
v 0.732995 0.468750 1.062500
v 0.732995 0.218750 1.062500
vn -0.0000 1.0000 -0.0000
vn -0.7071 -0.0000 0.7071
vn -0.0000 -1.0000 -0.0000
vn -1.0000 -0.0000 -0.0000
vn -0.7071 -0.0000 -0.7071
vn -0.0000 -0.0000 -1.0000
vn 0.7071 -0.0000 -0.7071
vn 1.0000 -0.0000 -0.0000
vn 0.7071 -0.0000 0.7071
vn -0.0000 -0.0000 1.0000
vt 0.929688 0.937500
vt 0.695312 0.937500
vt 0.812500 0.656250
vt 0.695312 0.906250
vt 0.929688 0.906250
s 1
usemtl tire_0
f 120/46/43 118/47/43 116/48/43
f 118/49/44 120/50/44 121/46/44 119/47/44
f 119/46/45 121/47/45 117/48/45
f 122/46/43 120/47/43 116/48/43
f 120/49/46 122/50/46 123/46/46 121/47/46
f 121/46/45 123/47/45 117/48/45
f 124/46/43 122/47/43 116/48/43
f 122/49/47 124/50/47 125/46/47 123/47/47
f 123/46/45 125/47/45 117/48/45
f 126/46/43 124/47/43 116/48/43
f 124/49/48 126/50/48 115/46/48 125/47/48
f 125/46/45 115/47/45 117/48/45
f 127/46/43 126/47/43 116/48/43
f 126/49/49 127/50/49 128/46/49 115/47/49
f 115/46/45 128/47/45 117/48/45
f 129/46/43 127/47/43 116/48/43
f 127/49/50 129/50/50 130/46/50 128/47/50
f 128/46/45 130/47/45 117/48/45
f 131/46/43 129/47/43 116/48/43
f 129/49/51 131/50/51 132/46/51 130/47/51
f 130/46/45 132/47/45 117/48/45
f 118/46/43 131/47/43 116/48/43
f 131/49/52 118/50/52 119/46/52 132/47/52
f 132/46/45 119/47/45 117/48/45
