# Blender 4.4.3
# www.blender.org
mtllib separated_tire_item.mtl
o belt_tire.002
v 0.914214 0.312500 1.500000
v 0.914214 0.687500 1.500000
v 0.839610 0.312500 1.319892
v 0.839610 0.687500 1.319892
v 1.500000 0.312500 0.914214
v 1.500000 0.687500 0.914213
v 1.319892 0.312500 0.839610
v 1.319892 0.687500 0.839610
v 1.500000 0.312500 0.085786
v 1.500000 0.687500 0.085786
v 1.319892 0.312500 0.160390
v 1.319892 0.687500 0.160389
v 0.914214 0.312500 -0.500000
v 0.914214 0.687500 -0.500000
v 0.839610 0.312500 -0.319892
v 0.839610 0.687500 -0.319892
v 0.085786 0.312500 -0.500000
v 0.085786 0.687500 -0.500000
v 0.160390 0.312500 -0.319892
v 0.160390 0.687500 -0.319892
v -0.500000 0.312500 0.085786
v -0.500000 0.687500 0.085786
v -0.319892 0.312500 0.160390
v -0.319892 0.687500 0.160389
v -0.500000 0.312500 0.914214
v -0.500000 0.687500 0.914213
v -0.319892 0.312500 0.839610
v -0.319892 0.687500 0.839610
v 0.085786 0.312500 1.500000
v 0.085786 0.687500 1.500000
v 0.160390 0.312500 1.319892
v 0.160390 0.687500 1.319892
v 0.914214 0.500000 1.500000
v 1.500000 0.500000 0.914213
v 1.500000 0.500000 0.085786
v 0.914214 0.500000 -0.500000
v 0.085786 0.500000 -0.500000
v -0.500000 0.500000 0.085786
v -0.500000 0.500000 0.914213
v 0.085786 0.500000 1.500000
vn 0.7071 -0.0000 0.7071
vn -0.7071 -0.0000 -0.7071
vn -0.0000 -1.0000 -0.0000
vn -0.0000 1.0000 -0.0000
vn 1.0000 -0.0000 -0.0000
vn -1.0000 -0.0000 -0.0000
vn 0.7071 -0.0000 -0.7071
vn -0.7071 -0.0000 0.7071
vn -0.0000 -0.0000 -1.0000
vn -0.0000 -0.0000 1.0000
vt 0.000000 0.343750
vt 0.437500 0.343750
vt 0.437500 0.437500
vt 0.000000 0.437500
vt 0.183362 0.562500
vt 0.156250 0.562500
vt 0.156250 0.531250
vt 0.183362 0.531250
vt 0.369667 0.000000
vt 0.036583 0.000000
vt 0.000000 0.093750
vt 0.406250 0.093750
vt 0.000000 0.062500
vt 0.437500 0.062500
vt 0.437500 0.156250
vt 0.000000 0.156250
s 1
usemtl tire_0
f 33/1/1 34/2/1 6/3/1 2/4/1
f 4/5/2 8/6/2 7/7/2 3/8/2
f 3/9/3 7/10/3 5/11/3 1/12/3
f 2/12/4 6/11/4 8/10/4 4/9/4
f 34/1/5 35/2/5 10/3/5 6/4/5
f 8/5/6 12/6/6 11/7/6 7/8/6
f 7/9/3 11/10/3 9/11/3 5/12/3
f 6/12/4 10/11/4 12/10/4 8/9/4
f 35/1/7 36/2/7 14/3/7 10/4/7
f 12/5/8 16/6/8 15/7/8 11/8/8
f 11/9/3 15/10/3 13/11/3 9/12/3
f 10/12/4 14/11/4 16/10/4 12/9/4
f 36/1/9 37/2/9 18/3/9 14/4/9
f 16/5/10 20/6/10 19/7/10 15/8/10
f 15/9/3 19/10/3 17/11/3 13/12/3
f 14/12/4 18/11/4 20/10/4 16/9/4
f 37/1/2 38/2/2 22/3/2 18/4/2
f 20/5/1 24/6/1 23/7/1 19/8/1
f 19/9/3 23/10/3 21/11/3 17/12/3
f 18/12/4 22/11/4 24/10/4 20/9/4
f 38/1/6 39/2/6 26/3/6 22/4/6
f 24/5/5 28/6/5 27/7/5 23/8/5
f 23/9/3 27/10/3 25/11/3 21/12/3
f 22/12/4 26/11/4 28/10/4 24/9/4
f 39/1/8 40/2/8 30/3/8 26/4/8
f 28/5/7 32/6/7 31/7/7 27/8/7
f 27/9/3 31/10/3 29/11/3 25/12/3
f 26/12/4 30/11/4 32/10/4 28/9/4
f 40/1/10 33/2/10 2/3/10 30/4/10
f 32/5/9 4/6/9 3/7/9 31/8/9
f 31/9/3 3/10/3 1/11/3 29/12/3
f 30/12/4 2/11/4 4/10/4 32/9/4
f 29/13/10 1/14/10 33/15/10 40/16/10
f 25/13/8 29/14/8 40/15/8 39/16/8
f 21/13/6 25/14/6 39/15/6 38/16/6
f 17/13/2 21/14/2 38/15/2 37/16/2
f 13/13/9 17/14/9 37/15/9 36/16/9
f 9/13/7 13/14/7 36/15/7 35/16/7
f 5/13/5 9/14/5 35/15/5 34/16/5
f 1/13/1 5/14/1 34/15/1 33/16/1
o core.002
v 0.062500 0.687500 0.312500
v 0.062500 0.687500 0.687500
v -0.062500 0.687500 0.312500
v -0.062500 0.687500 0.687500
v 0.062500 0.312500 0.312500
v 0.062500 0.312500 0.687500
v -0.062500 0.312500 0.312500
v -0.062500 0.312500 0.687500
v 0.062500 0.687500 0.687500
v 0.062500 0.687500 0.312500
v 0.062500 0.312500 0.312500
v 0.062500 0.312500 0.687500
v 0.312500 0.687500 0.062500
v 0.312500 0.312500 0.062500
v 0.135417 0.312500 0.651016
v 0.135417 0.312500 0.348985
v 0.687500 0.687500 0.062500
v 0.687500 0.312500 0.062500
v 0.348985 0.312500 0.135417
v 0.937500 0.687500 0.312500
v 0.937500 0.312500 0.312500
v 0.651016 0.312500 0.135417
v 0.937500 0.687500 0.687500
v 0.937500 0.312500 0.687500
v 0.864583 0.312500 0.348985
v 0.687500 0.687500 0.937500
v 0.687500 0.312500 0.937500
v 0.864583 0.312500 0.651016
v 0.312500 0.687500 0.937500
v 0.312500 0.312500 0.937500
v 0.651015 0.312500 0.864583
v 0.348984 0.312500 0.864583
v 0.500000 0.312500 0.500000
v 0.500000 0.687500 0.500000
v 0.135417 0.687500 0.348984
v 0.135417 0.687500 0.651015
v 0.348985 0.687500 0.864583
v 0.651016 0.687500 0.864583
v 0.864583 0.687500 0.651015
v 0.864583 0.687500 0.348984
v 0.651016 0.687500 0.135417
v 0.348985 0.687500 0.135417
v 0.687500 0.687500 0.062500
v 0.312500 0.687500 0.062500
v 0.687500 0.687500 -0.062500
v 0.312500 0.687500 -0.062500
v 0.687500 0.312500 0.062500
v 0.312500 0.312500 0.062500
v 0.687500 0.312500 -0.062500
v 0.312500 0.312500 -0.062500
v 0.937500 0.687500 0.687500
v 0.937500 0.687500 0.312500
v 1.062500 0.687500 0.687500
v 1.062500 0.687500 0.312500
v 0.937500 0.312500 0.687500
v 0.937500 0.312500 0.312500
v 1.062500 0.312500 0.687500
v 1.062500 0.312500 0.312500
v 0.312500 0.687500 0.937500
v 0.687500 0.687500 0.937500
v 0.312500 0.687500 1.062500
v 0.687500 0.687500 1.062500
v 0.312500 0.312500 0.937500
v 0.687500 0.312500 0.937500
v 0.312500 0.312500 1.062500
v 0.687500 0.312500 1.062500
v 0.062500 0.752656 0.562500
v 0.062500 0.752656 0.437500
v 0.187500 0.752656 0.562500
v 0.187500 0.752656 0.437500
v 0.062500 0.247344 0.562500
v 0.062500 0.247344 0.437500
v 0.187500 0.247344 0.562500
v 0.187500 0.247344 0.437500
v 0.437500 0.752656 0.187500
v 0.437500 0.752656 0.062500
v 0.562500 0.752656 0.187500
v 0.562500 0.752656 0.062500
v 0.437500 0.247344 0.187500
v 0.437500 0.247344 0.062500
v 0.562500 0.247344 0.187500
v 0.562500 0.247344 0.062500
v 0.812500 0.752656 0.562500
v 0.812500 0.752656 0.437500
v 0.937500 0.752656 0.562500
v 0.937500 0.752656 0.437500
v 0.812500 0.247344 0.562500
v 0.812500 0.247344 0.437500
v 0.937500 0.247344 0.562500
v 0.937500 0.247344 0.437500
v 0.437500 0.752656 0.937500
v 0.437500 0.752656 0.812500
v 0.562500 0.752656 0.937500
v 0.562500 0.752656 0.812500
v 0.437500 0.247344 0.937500
v 0.437500 0.247344 0.812500
v 0.562500 0.247344 0.937500
v 0.562500 0.247344 0.812500
v 0.250000 0.937500 0.750000
v 0.250000 0.937500 0.250000
v 0.750000 0.937500 0.750000
v 0.750000 0.937500 0.250000
v 0.250000 0.062500 0.750000
v 0.250000 0.062500 0.250000
v 0.750000 0.062500 0.750000
v 0.750000 0.062500 0.250000
vn -0.0000 1.0000 -0.0000
vn -0.0000 -1.0000 -0.0000
vn 1.0000 -0.0000 -0.0000
vn -1.0000 -0.0000 -0.0000
vn -0.0000 -0.0000 -1.0000
vn -0.0000 -0.0000 1.0000
vn -0.7071 -0.0000 -0.7071
vn 0.7071 -0.0000 -0.7071
vn 0.7071 -0.0000 0.7071
vn -0.7071 -0.0000 0.7071
vt 0.812500 0.468750
vt 0.812500 0.406250
vt 1.000000 0.406250
vt 1.000000 0.468750
vt 0.562500 0.000000
vt 0.625000 0.000000
vt 0.625000 0.375000
vt 0.562500 0.375000
vt 0.981759 0.375000
vt 0.830744 0.375000
vt 0.981759 0.437500
vt 0.830744 0.437500
vt 0.812500 0.187500
vt 1.000000 0.262500
vt 0.887500 0.375000
vt 1.000000 0.112500
vt 0.887500 0.000000
vt 0.737500 0.000000
vt 0.737500 0.375000
vt 0.625000 0.262500
vt 0.625000 0.112500
vt 0.812500 0.375000
vt 0.812500 0.437500
vt 0.750000 0.437500
vt 0.750000 0.375000
vt 0.937500 0.062500
vt 0.937500 0.312500
vt 0.687500 0.312500
vt 0.687500 0.062500
vt 0.562500 0.343750
vt 0.625000 0.343750
s 1
usemtl tire_0
f 44/17/11 42/18/11 41/19/11 43/20/11
f 47/17/12 45/18/12 46/19/12 48/20/12
f 41/21/13 42/22/13 46/23/13 45/24/13
f 44/21/14 43/22/14 47/23/14 48/24/14
f 43/21/15 41/22/15 45/23/15 47/24/15
f 48/21/16 46/22/16 42/23/16 44/24/16
f 49/21/14 50/22/14 51/23/14 52/24/14
f 50/21/17 53/22/17 54/23/17 51/24/17
f 55/25/12 52/19/12 51/18/12 56/26/12
f 53/21/15 57/22/15 58/23/15 54/24/15
f 56/27/12 51/20/12 54/17/12 59/28/12
f 57/21/18 60/22/18 61/23/18 58/24/18
f 59/25/12 54/19/12 58/18/12 62/26/12
f 60/21/13 63/22/13 64/23/13 61/24/13
f 62/27/12 58/20/12 61/17/12 65/28/12
f 63/21/19 66/22/19 67/23/19 64/24/19
f 65/25/12 61/19/12 64/18/12 68/26/12
f 66/21/16 69/22/16 70/23/16 67/24/16
f 68/27/12 64/20/12 67/17/12 71/28/12
f 69/21/20 49/22/20 52/23/20 70/24/20
f 71/25/12 67/19/12 70/18/12 72/26/12
f 72/27/12 70/20/12 52/17/12 55/28/12
f 73/29/12 72/30/12 55/31/12
f 73/29/12 71/32/12 72/30/12
f 73/29/12 68/33/12 71/32/12
f 73/29/12 65/34/12 68/33/12
f 74/29/11 75/31/11 76/35/11
f 74/29/11 76/35/11 77/36/11
f 74/29/11 77/36/11 78/37/11
f 73/29/12 62/37/12 65/34/12
f 74/29/11 79/34/11 80/33/11
f 74/29/11 78/37/11 79/34/11
f 74/29/11 80/33/11 81/32/11
f 74/29/11 81/32/11 82/30/11
f 73/29/12 59/36/12 62/37/12
f 82/27/11 53/20/11 50/17/11 75/28/11
f 74/29/11 82/30/11 75/31/11
f 81/25/11 57/19/11 53/18/11 82/26/11
f 80/27/11 60/20/11 57/17/11 81/28/11
f 73/29/12 56/35/12 59/36/12
f 78/27/11 66/20/11 63/17/11 79/28/11
f 79/25/11 63/19/11 60/18/11 80/26/11
f 77/25/11 69/19/11 66/18/11 78/26/11
f 76/27/11 49/20/11 69/17/11 77/28/11
f 73/29/12 55/31/12 56/35/12
f 75/25/11 50/19/11 49/18/11 76/26/11
f 86/17/11 84/18/11 83/19/11 85/20/11
f 89/17/12 87/18/12 88/19/12 90/20/12
f 83/21/16 84/22/16 88/23/16 87/24/16
f 86/21/15 85/22/15 89/23/15 90/24/15
f 85/21/13 83/22/13 87/23/13 89/24/13
f 90/21/14 88/22/14 84/23/14 86/24/14
f 94/17/11 92/18/11 91/19/11 93/20/11
f 97/17/12 95/18/12 96/19/12 98/20/12
f 91/21/14 92/22/14 96/23/14 95/24/14
f 94/21/13 93/22/13 97/23/13 98/24/13
f 93/21/16 91/22/16 95/23/16 97/24/16
f 98/21/15 96/22/15 92/23/15 94/24/15
f 102/17/11 100/18/11 99/19/11 101/20/11
f 105/17/12 103/18/12 104/19/12 106/20/12
f 99/21/15 100/22/15 104/23/15 103/24/15
f 102/21/16 101/22/16 105/23/16 106/24/16
f 101/21/14 99/22/14 103/23/14 105/24/14
f 106/21/13 104/22/13 100/23/13 102/24/13
f 110/38/11 108/39/11 107/40/11 109/41/11
f 113/41/12 111/40/12 112/39/12 114/38/12
f 107/39/14 108/38/14 112/41/14 111/40/14
f 110/38/13 109/39/13 113/40/13 114/41/13
f 109/38/16 107/39/16 111/40/16 113/41/16
f 114/38/15 112/39/15 108/40/15 110/41/15
f 118/38/11 116/39/11 115/40/11 117/41/11
f 121/41/12 119/40/12 120/39/12 122/38/12
f 115/39/14 116/38/14 120/41/14 119/40/14
f 118/38/13 117/39/13 121/40/13 122/41/13
f 117/38/16 115/39/16 119/40/16 121/41/16
f 122/38/15 120/39/15 116/40/15 118/41/15
f 126/38/11 124/39/11 123/40/11 125/41/11
f 129/41/12 127/40/12 128/39/12 130/38/12
f 123/39/14 124/38/14 128/41/14 127/40/14
f 126/38/13 125/39/13 129/40/13 130/41/13
f 125/38/16 123/39/16 127/40/16 129/41/16
f 130/38/15 128/39/15 124/40/15 126/41/15
f 134/38/11 132/39/11 131/40/11 133/41/11
f 137/41/12 135/40/12 136/39/12 138/38/12
f 131/39/14 132/38/14 136/41/14 135/40/14
f 134/38/13 133/39/13 137/40/13 138/41/13
f 133/38/16 131/39/16 135/40/16 137/41/16
f 138/38/15 136/39/15 132/40/15 134/41/15
f 142/42/11 140/43/11 139/44/11 141/45/11
f 145/42/12 143/43/12 144/44/12 146/45/12
f 139/46/14 140/47/14 144/23/14 143/24/14
f 142/46/13 141/47/13 145/23/13 146/24/13
f 141/46/16 139/47/16 143/23/16 145/24/16
f 146/46/15 144/47/15 140/23/15 142/24/15
o rim.002
v 0.156250 0.687500 1.312497
v 0.156250 0.312500 1.312500
v 0.218750 0.687500 1.187500
v 0.218750 0.312500 1.187500
v -0.312500 0.687500 0.843750
v -0.312500 0.312500 0.843750
v -0.187500 0.687500 0.781250
v -0.187500 0.312500 0.781250
v -0.312500 0.687500 0.156250
v -0.312500 0.312500 0.156250
v -0.187500 0.687500 0.218750
v -0.187500 0.312500 0.218750
v 0.156250 0.687500 -0.312497
v 0.156250 0.312500 -0.312500
v 0.218750 0.687500 -0.187500
v 0.218750 0.312500 -0.187500
v 0.843750 0.687500 -0.312497
v 0.843750 0.312500 -0.312500
v 0.781250 0.687500 -0.187500
v 0.781250 0.312500 -0.187500
v 1.312500 0.687500 0.156250
v 1.312500 0.312500 0.156250
v 1.187500 0.687500 0.218750
v 1.187500 0.312500 0.218750
v 1.312500 0.687500 0.843750
v 1.312500 0.312500 0.843750
v 1.187500 0.687500 0.781250
v 1.187500 0.312500 0.781250
v 0.843750 0.687500 1.312497
v 0.843750 0.312500 1.312500
v 0.781250 0.687500 1.187500
v 0.781250 0.312500 1.187500
vn -0.7071 -0.0000 0.7071
vn 0.7071 -0.0000 -0.7071
vn -0.0000 1.0000 -0.0000
vn -0.0000 -1.0000 -0.0000
vn -1.0000 -0.0000 -0.0000
vn 1.0000 -0.0000 -0.0000
vn -0.7071 -0.0000 -0.7071
vn 0.7071 -0.0000 0.7071
vn -0.0000 -0.0000 -1.0000
vn -0.0000 -0.0000 1.0000
vt 0.625000 0.000000
vt 0.562500 0.000000
vt 0.562500 0.375000
vt 0.625000 0.375000
vt 0.666127 0.937500
vt 0.958873 0.937500
vt 0.984375 1.000000
vt 0.640625 1.000000
vt 0.666128 0.937500
vt 0.958872 0.937500
s 1
usemtl tire_0
f 147/48/21 151/49/21 152/50/21 148/51/21
f 150/51/22 154/50/22 153/49/22 149/48/22
f 149/52/23 153/53/23 151/54/23 147/55/23
f 148/54/24 152/55/24 154/56/24 150/57/24
f 151/48/25 155/49/25 156/50/25 152/51/25
f 154/51/26 158/50/26 157/49/26 153/48/26
f 153/52/23 157/53/23 155/54/23 151/55/23
f 152/54/24 156/55/24 158/56/24 154/57/24
f 155/48/27 159/49/27 160/50/27 156/51/27
f 158/51/28 162/50/28 161/49/28 157/48/28
f 157/52/23 161/53/23 159/54/23 155/55/23
f 156/54/24 160/55/24 162/56/24 158/57/24
f 159/48/29 163/49/29 164/50/29 160/51/29
f 162/51/30 166/50/30 165/49/30 161/48/30
f 161/52/23 165/53/23 163/54/23 159/55/23
f 160/54/24 164/55/24 166/56/24 162/57/24
f 163/48/22 167/49/22 168/50/22 164/51/22
f 166/51/21 170/50/21 169/49/21 165/48/21
f 165/52/23 169/53/23 167/54/23 163/55/23
f 164/54/24 168/55/24 170/56/24 166/57/24
f 167/48/26 171/49/26 172/50/26 168/51/26
f 170/51/25 174/50/25 173/49/25 169/48/25
f 169/52/23 173/53/23 171/54/23 167/55/23
f 168/54/24 172/55/24 174/56/24 170/57/24
f 171/48/28 175/49/28 176/50/28 172/51/28
f 174/51/27 178/50/27 177/49/27 173/48/27
f 173/52/23 177/53/23 175/54/23 171/55/23
f 172/54/24 176/55/24 178/56/24 174/57/24
f 175/48/30 147/49/30 148/50/30 176/51/30
f 178/51/29 150/50/29 149/49/29 177/48/29
f 177/52/23 149/53/23 147/54/23 175/55/23
f 176/54/24 148/55/24 150/56/24 178/57/24
o spokes.002
v 0.500000 0.625000 0.500000
v 0.500000 0.375000 0.500000
v 0.215228 0.625000 1.187500
v 0.215228 0.375000 1.187500
v -0.187500 0.625000 0.784772
v -0.187500 0.375000 0.784772
v -0.187500 0.625000 0.215228
v -0.187500 0.375000 0.215228
v 0.215228 0.625000 -0.187500
v 0.215228 0.375000 -0.187500
v 0.784772 0.625000 -0.187500
v 0.784772 0.375000 -0.187500
v 1.187500 0.625000 0.215228
v 1.187500 0.375000 0.215228
v 1.187500 0.625000 0.784772
v 1.187500 0.375000 0.784772
v 0.784772 0.625000 1.187500
v 0.784772 0.375000 1.187500
vn -0.0000 1.0000 -0.0000
vn -0.7071 -0.0000 0.7071
vn -0.0000 -1.0000 -0.0000
vn -1.0000 -0.0000 -0.0000
vn -0.7071 -0.0000 -0.7071
vn -0.0000 -0.0000 -1.0000
vn 0.7071 -0.0000 -0.7071
vn 1.0000 -0.0000 -0.0000
vn 0.7071 -0.0000 0.7071
vn -0.0000 -0.0000 1.0000
vt 0.953125 0.937500
vt 0.671875 0.937500
vt 0.812500 0.593750
vt 0.671875 0.906250
vt 0.953125 0.906250
s 1
usemtl tire_0
f 183/58/31 181/59/31 179/60/31
f 181/61/32 183/62/32 184/58/32 182/59/32
f 182/58/33 184/59/33 180/60/33
f 185/58/31 183/59/31 179/60/31
f 183/61/34 185/62/34 186/58/34 184/59/34
f 184/58/33 186/59/33 180/60/33
f 187/58/31 185/59/31 179/60/31
f 185/61/35 187/62/35 188/58/35 186/59/35
f 186/58/33 188/59/33 180/60/33
f 189/58/31 187/59/31 179/60/31
f 187/61/36 189/62/36 190/58/36 188/59/36
f 188/58/33 190/59/33 180/60/33
f 191/58/31 189/59/31 179/60/31
f 189/61/37 191/62/37 192/58/37 190/59/37
f 190/58/33 192/59/33 180/60/33
f 193/58/31 191/59/31 179/60/31
f 191/61/38 193/62/38 194/58/38 192/59/38
f 192/58/33 194/59/33 180/60/33
f 195/58/31 193/59/31 179/60/31
f 193/61/39 195/62/39 196/58/39 194/59/39
f 194/58/33 196/59/33 180/60/33
f 181/58/31 195/59/31 179/60/31
f 195/61/40 181/62/40 182/58/40 196/59/40
f 196/58/33 182/59/33 180/60/33
o shaft.001
v 0.375000 0.000000 0.625000
v 0.375000 0.000000 0.375000
v 0.375000 1.000000 0.625000
v 0.375000 1.000000 0.375000
v 0.625000 0.000000 0.375000
v 0.625000 0.000000 0.625000
v 0.625000 1.000000 0.375000
v 0.625000 1.000000 0.625000
vn -0.0000 -0.0000 -1.0000
vn -1.0000 -0.0000 -0.0000
vn -0.0000 -0.0000 1.0000
vn 1.0000 -0.0000 -0.0000
vn -0.0000 -1.0000 -0.0000
vn -0.0000 1.0000 -0.0000
vt 0.375000 0.000000
vt 0.625000 0.000000
vt 0.625000 1.000000
vt 0.375000 1.000000
vt 0.375000 0.375000
vt 0.625000 0.375000
vt 0.625000 0.625000
vt 0.375000 0.625000
s 1
usemtl axis
f 200/63/41 203/64/41 201/65/41 198/66/41
f 199/63/42 200/64/42 198/65/42 197/66/42
f 204/63/43 199/64/43 197/65/43 202/66/43
f 203/63/44 204/64/44 202/65/44 201/66/44
usemtl axis_top
f 202/67/45 197/68/45 198/69/45 201/70/45
f 203/67/46 200/68/46 199/69/46 204/70/46
